<?xml version="1.0" encoding="utf-8"?>
<!-- Generator: Adobe Illustrator 29.0.0, SVG Export Plug-In . SVG Version: 9.03 Build 54978)  -->
<svg version="1.0"
	 id="svg2" xmlns:svg="http://www.w3.org/2000/svg" xmlns:rdf="http://www.w3.org/1999/02/22-rdf-syntax-ns#" xmlns:inkscape="http://www.inkscape.org/namespaces/inkscape" xmlns:sodipodi="http://sodipodi.sourceforge.net/DTD/sodipodi-0.dtd" xmlns:cc="http://creativecommons.org/ns#" xmlns:dc="http://purl.org/dc/elements/1.1/"
	 xmlns="http://www.w3.org/2000/svg" xmlns:xlink="http://www.w3.org/1999/xlink" x="0px" y="0px" viewBox="0 0 512 512"
	 style="enable-background:new 0 0 512 512;" xml:space="preserve">
<style type="text/css">
	.st0{fill:#DFDCD3;}
</style>
<sodipodi:namedview  bordercolor="#666666" borderopacity="1" gridtolerance="10" guidetolerance="10" id="namedview4" inkscape:current-layer="svg2" inkscape:cx="245.04229" inkscape:cy="284.41847" inkscape:document-units="px" inkscape:pageopacity="0" inkscape:pageshadow="2" inkscape:window-height="1025" inkscape:window-maximized="1" inkscape:window-width="1920" inkscape:window-x="0" inkscape:window-y="29" inkscape:zoom="2.6074563" objecttolerance="10" pagecolor="#ffffff" showgrid="false">
	</sodipodi:namedview>
<g>
	<path class="st0" d="M466.8,243.8c0-4.2-0.3-8.5-1.1-12.6c-5.1-27.2-27.6-47.2-55.3-47.2c-104.5-0.3-209.1-0.1-313.6-0.1
		c-2.3,0-4.5,0.2-6.8,0.6c-29.8,5.2-49.4,28.4-49.4,59.2c-0.1,50.3-0.2,100.6,0.1,150.9c0,6.8,1.1,14,3.2,20.4
		c8.2,24.7,29.7,39.4,56.9,39.4c51,0,102,0,153,0c50.4,0,100.8,0,151.1,0c4.2,0,8.5,0,12.7-0.7c29.7-5.2,49.1-28.5,49.2-59.3
		C466.8,344.2,466.8,294.1,466.8,243.8L466.8,243.8z M428,393.5c0,14.7-7.6,22.3-22.4,22.3c-101.3,0-202.7,0-304,0
		c-14.7,0-22.3-7.6-22.3-22.4c0-49.7,0-99.4,0-149.1c0-14.4,7.6-22.1,22.1-22.1c50.7,0,101.3,0,152,0c50.5,0,101,0,151.6,0
		c15.7,0,22.9,7.3,22.9,23.1c0,49.4,0,98.8,0,148.2H428z"/>
	<path class="st0" d="M291.3,338.3c-25.1,0-50.2-0.1-75.3,0c-11.9,0-20.5,8.6-20.4,19.7c0.2,10.9,8.8,19,20.6,19
		c12.4,0,24.8,0,37.2,0c12.5,0,25.1,0,37.6,0c12.1,0,20.7-8.1,20.8-19.2c0-11.1-8.6-19.5-20.6-19.5H291.3z"/>
	<path class="st0" d="M137.5,338.3c-10.8,0-19.4,8.8-19.3,19.8c0.1,10.8,8.6,19.1,19.4,19.1s19.1-8.6,19.1-19.4
		c0-10.7-8.6-19.4-19.2-19.4V338.3z"/>
	<path class="st0" d="M370.1,338.3c-10.6-0.2-19.3,8.5-19.5,19.2c-0.1,10.8,8.2,19.5,18.8,19.7c10.8,0.2,19.5-8.1,19.7-18.8
		c0.2-11-8.2-19.9-19.1-20L370.1,338.3z"/>
	<path class="st0" d="M214.8,299.7c10.6,0.1,19.7-8.9,19.6-19.5c-0.1-10.6-8.9-19.2-19.4-19.2c-10.6,0-19.3,8.7-19.3,19.3
		c0,10.5,8.6,19.3,19.2,19.5L214.8,299.7z"/>
	<path class="st0" d="M292.8,299.7c10.6-0.2,19.1-9,19-19.6c0-10.6-8.8-19.2-19.4-19.1c-10.6,0-19.3,8.8-19.3,19.3
		C273.1,291,282.2,300,292.8,299.7L292.8,299.7z"/>
	<path class="st0" d="M137.4,299.7c10.6,0.1,19.3-8.6,19.4-19.3c0-10.7-8.5-19.4-19.1-19.5c-10.7,0-19.3,8.5-19.4,19.2
		C118.3,290.8,126.8,299.5,137.4,299.7L137.4,299.7z"/>
	<path class="st0" d="M370.1,261c-10.7,0-19.3,8.5-19.4,19.2c0,10.7,8.5,19.4,19.1,19.5c10.6,0,19.3-8.6,19.4-19.3
		C389.2,269.7,380.7,261,370.1,261L370.1,261z"/>
</g>
<g>
	<path class="st0" d="M160.5,162V87.2H211v14.1h-33.7V116h29.9v13.8h-29.9v18h36.2V162H160.5z"/>
	<path class="st0" d="M281.4,87.2v14.4h-22.6V162H242v-60.4h-22.6V87.2H281.4z"/>
	<path class="st0" d="M333.5,162c-0.8-2.6-1.7-5.3-2.7-8c-1-2.7-1.9-5.5-2.9-8.2h-29.2c-0.9,2.7-1.9,5.5-2.8,8.2
		c-0.9,2.7-1.8,5.4-2.6,8h-17.5c2.8-8.1,5.5-15.5,8-22.3c2.5-6.8,5-13.3,7.4-19.3c2.4-6,4.8-11.8,7.1-17.2
		c2.3-5.4,4.8-10.7,7.3-15.9h16c2.5,5.2,4.9,10.5,7.3,15.9c2.4,5.4,4.8,11.2,7.2,17.2c2.4,6,4.9,12.5,7.4,19.3
		c2.5,6.8,5.2,14.3,8,22.3H333.5z M313.3,104.2c-0.4,1.1-0.9,2.6-1.6,4.4c-0.7,1.9-1.5,4-2.5,6.5c-0.9,2.5-2,5.1-3.1,8.1
		c-1.1,2.9-2.3,6-3.5,9.3h21.4c-1.1-3.2-2.3-6.3-3.3-9.3c-1.1-3-2.1-5.7-3.1-8.1c-1-2.5-1.8-4.6-2.5-6.5
		C314.3,106.7,313.7,105.2,313.3,104.2z"/>
</g>
</svg>
