<?xml version="1.0" encoding="UTF-8" standalone="no"?>
<!-- Created with Inkscape (http://www.inkscape.org/) -->

<svg
   width="64"
   height="64"
   viewBox="0 0 16.933333 16.933333"
   version="1.1"
   id="svg1"
   inkscape:version="1.2.2 (b0a8486541, 2022-12-01)"
   sodipodi:docname="pardus-update.svg"
   xml:space="preserve"
   xmlns:inkscape="http://www.inkscape.org/namespaces/inkscape"
   xmlns:sodipodi="http://sodipodi.sourceforge.net/DTD/sodipodi-0.dtd"
   xmlns="http://www.w3.org/2000/svg"
   xmlns:svg="http://www.w3.org/2000/svg"><sodipodi:namedview
     id="namedview1"
     pagecolor="#ffffff"
     bordercolor="#000000"
     borderopacity="0.25"
     inkscape:showpageshadow="2"
     inkscape:pageopacity="0.0"
     inkscape:pagecheckerboard="0"
     inkscape:deskcolor="#d1d1d1"
     inkscape:document-units="px"
     inkscape:zoom="6.5923121"
     inkscape:cx="44.824941"
     inkscape:cy="23.967312"
     inkscape:window-width="1916"
     inkscape:window-height="1150"
     inkscape:window-x="0"
     inkscape:window-y="0"
     inkscape:window-maximized="1"
     inkscape:current-layer="layer1"
     showgrid="false" /><defs
     id="defs1"><linearGradient
       id="SVGID_00000129901450951144020920000007753056098303935627_"
       gradientUnits="userSpaceOnUse"
       x1="-434.02811"
       y1="-74.135002"
       x2="-434.02811"
       y2="-49.8008"
       gradientTransform="matrix(1,0,0,-1,0,-121.5918)"><stop
         offset="0"
         style="stop-color:#27AFD9"
         id="stop80" /><stop
         offset="1"
         style="stop-color:#42BDD9"
         id="stop81" /></linearGradient></defs><g
     inkscape:label="Layer 1"
     inkscape:groupmode="layer"
     id="layer1"><g
       id="g1159"
       transform="translate(48.274081,-198.07344)"><g
         id="g983"
         transform="matrix(0.83295245,0,0,0.83295245,-46.859745,199.09373)"><path
           class="st0"
           d="M 14.063474,0.25084148 H 2.9057374 C 1.5782897,0.35847238 0.53785766,1.4347813 0.43022676,2.7263521 V 14.135227 c 0.1076309,1.399202 1.18393984,2.439634 2.54726464,2.547265 h 0.071754 l 10.9424736,-0.03588 c 1.399202,-0.07176 2.511388,-1.219817 2.511388,-2.619018 V 2.7981059 c 0,-1.3633246 -1.040431,-2.47551058 -2.439633,-2.54726442 z"
           id="path977"
           style="opacity:0.3;fill:#ffffff;stroke-width:0.358769;enable-background:new" /><path
           class="st1"
           d="M 3.0492452,16.503107 H 2.9774908 C 1.721797,16.431348 0.71724199,15.426798 0.60961109,14.135227 V 14.063468 2.7981019 2.7263475 C 0.68136548,1.5065306 1.6859201,0.53785251 2.9057368,0.43022161 h 0.071754 11.0859832 c 1.255693,0.0717544 2.260249,1.11218599 2.260249,2.36787969 V 14.027592 c 0,1.291571 -1.004556,2.36788 -2.332004,2.439634 h -0.03588 z"
           id="path979"
           style="fill:#ffffff;stroke-width:0.358769;enable-background:new" /><path
           class="st12"
           d="M 3.0492452,16.503107 H 2.9774908 C 1.721797,16.431348 0.71724199,15.426798 0.60961109,14.135227 V 14.063468 2.7981019 2.7263475 C 0.68136548,1.5065306 1.6859201,0.53785251 2.9057368,0.43022161 h 0.071754 11.0859832 c 1.255693,0.0717544 2.260249,1.11218599 2.260249,2.36787969 V 14.027592 c 0,1.291571 -1.004556,2.36788 -2.332004,2.439634 h -0.03588 z"
           id="path981"
           style="opacity:0.3;fill:#bbd8e8;stroke-width:0.358769;enable-background:new" /></g><g
         id="g37"
         style="fill:#36b7d9;fill-opacity:1"
         transform="matrix(0.03580314,0,0,0.03580314,-48.888881,197.5086)">
	<path
   class="st0"
   d="m 466.8,243.8 c 0,-4.2 -0.3,-8.5 -1.1,-12.6 C 460.6,204 438.1,184 410.4,184 305.9,183.7 201.3,183.9 96.8,183.9 c -2.3,0 -4.5,0.2 -6.8,0.6 -29.8,5.2 -49.4,28.4 -49.4,59.2 -0.1,50.3 -0.2,100.6 0.1,150.9 0,6.8 1.1,14 3.2,20.4 8.2,24.7 29.7,39.4 56.9,39.4 51,0 102,0 153,0 50.4,0 100.8,0 151.1,0 4.2,0 8.5,0 12.7,-0.7 29.7,-5.2 49.1,-28.5 49.2,-59.3 0,-50.2 0,-100.3 0,-150.6 z M 428,393.5 c 0,14.7 -7.6,22.3 -22.4,22.3 -101.3,0 -202.7,0 -304,0 -14.7,0 -22.3,-7.6 -22.3,-22.4 0,-49.7 0,-99.4 0,-149.1 0,-14.4 7.6,-22.1 22.1,-22.1 50.7,0 101.3,0 152,0 50.5,0 101,0 151.6,0 15.7,0 22.9,7.3 22.9,23.1 0,49.4 0,98.8 0,148.2 z"
   id="path21"
   style="fill:#36b7d9;fill-opacity:1" />
	<path
   class="st0"
   d="m 291.3,338.3 c -25.1,0 -50.2,-0.1 -75.3,0 -11.9,0 -20.5,8.6 -20.4,19.7 0.2,10.9 8.8,19 20.6,19 12.4,0 24.8,0 37.2,0 12.5,0 25.1,0 37.6,0 12.1,0 20.7,-8.1 20.8,-19.2 0,-11.1 -8.6,-19.5 -20.6,-19.5 z"
   id="path23"
   style="fill:#36b7d9;fill-opacity:1" />
	<path
   class="st0"
   d="m 137.5,338.3 c -10.8,0 -19.4,8.8 -19.3,19.8 0.1,10.8 8.6,19.1 19.4,19.1 10.8,0 19.1,-8.6 19.1,-19.4 0,-10.7 -8.6,-19.4 -19.2,-19.4 z"
   id="path25"
   style="fill:#36b7d9;fill-opacity:1" />
	<path
   class="st0"
   d="m 370.1,338.3 c -10.6,-0.2 -19.3,8.5 -19.5,19.2 -0.1,10.8 8.2,19.5 18.8,19.7 10.8,0.2 19.5,-8.1 19.7,-18.8 0.2,-11 -8.2,-19.9 -19.1,-20 z"
   id="path27"
   style="fill:#36b7d9;fill-opacity:1" />
	<path
   class="st0"
   d="m 214.8,299.7 c 10.6,0.1 19.7,-8.9 19.6,-19.5 -0.1,-10.6 -8.9,-19.2 -19.4,-19.2 -10.6,0 -19.3,8.7 -19.3,19.3 0,10.5 8.6,19.3 19.2,19.5 z"
   id="path29"
   style="fill:#36b7d9;fill-opacity:1" />
	<path
   class="st0"
   d="m 292.8,299.7 c 10.6,-0.2 19.1,-9 19,-19.6 0,-10.6 -8.8,-19.2 -19.4,-19.1 -10.6,0 -19.3,8.8 -19.3,19.3 0,10.7 9.1,19.7 19.7,19.4 z"
   id="path31"
   style="fill:#36b7d9;fill-opacity:1" />
	<path
   class="st0"
   d="m 137.4,299.7 c 10.6,0.1 19.3,-8.6 19.4,-19.3 0,-10.7 -8.5,-19.4 -19.1,-19.5 -10.7,0 -19.3,8.5 -19.4,19.2 0,10.7 8.5,19.4 19.1,19.6 z"
   id="path33"
   style="fill:#36b7d9;fill-opacity:1" />
	<path
   class="st0"
   d="m 370.1,261 c -10.7,0 -19.3,8.5 -19.4,19.2 0,10.7 8.5,19.4 19.1,19.5 10.6,0 19.3,-8.6 19.4,-19.3 0,-10.7 -8.5,-19.4 -19.1,-19.4 z"
   id="path35"
   style="fill:#36b7d9;fill-opacity:1" />
</g><g
         id="g45"
         style="fill:#36b7d9;fill-opacity:1"
         transform="matrix(0.03580314,0,0,0.03580314,-48.973018,197.5086)">
	<path
   class="st0"
   d="M 160.5,162 V 87.2 H 211 v 14.1 H 177.3 V 116 h 29.9 v 13.8 h -29.9 v 18 h 36.2 V 162 Z"
   id="path39"
   style="fill:#36b7d9;fill-opacity:1" />
	<path
   class="st0"
   d="m 281.4,87.2 v 14.4 H 258.8 V 162 H 242 V 101.6 H 219.4 V 87.2 Z"
   id="path41"
   style="fill:#36b7d9;fill-opacity:1" />
	<path
   class="st0"
   d="m 333.5,162 c -0.8,-2.6 -1.7,-5.3 -2.7,-8 -1,-2.7 -1.9,-5.5 -2.9,-8.2 h -29.2 c -0.9,2.7 -1.9,5.5 -2.8,8.2 -0.9,2.7 -1.8,5.4 -2.6,8 h -17.5 c 2.8,-8.1 5.5,-15.5 8,-22.3 2.5,-6.8 5,-13.3 7.4,-19.3 2.4,-6 4.8,-11.8 7.1,-17.2 2.3,-5.4 4.8,-10.7 7.3,-15.9 h 16 c 2.5,5.2 4.9,10.5 7.3,15.9 2.4,5.4 4.8,11.2 7.2,17.2 2.4,6 4.9,12.5 7.4,19.3 2.5,6.8 5.2,14.3 8,22.3 z m -20.2,-57.8 c -0.4,1.1 -0.9,2.6 -1.6,4.4 -0.7,1.9 -1.5,4 -2.5,6.5 -0.9,2.5 -2,5.1 -3.1,8.1 -1.1,2.9 -2.3,6 -3.5,9.3 H 324 c -1.1,-3.2 -2.3,-6.3 -3.3,-9.3 -1.1,-3 -2.1,-5.7 -3.1,-8.1 -1,-2.5 -1.8,-4.6 -2.5,-6.5 -0.8,-1.9 -1.4,-3.4 -1.8,-4.4 z"
   id="path43"
   style="fill:#36b7d9;fill-opacity:1" />
</g></g></g><style
     type="text/css"
     id="style18">
	.st0{fill:#DFDCD3;}
</style></svg>
