<?xml version="1.0" encoding="UTF-8"?>
<svg id="svg2" xmlns="http://www.w3.org/2000/svg" xmlns:svg="http://www.w3.org/2000/svg" xmlns:sodipodi="http://sodipodi.sourceforge.net/DTD/sodipodi-0.dtd" xmlns:rdf="http://www.w3.org/1999/02/22-rdf-syntax-ns#" xmlns:inkscape="http://www.inkscape.org/namespaces/inkscape" xmlns:dc="http://purl.org/dc/elements/1.1/" xmlns:cc="http://creativecommons.org/ns#" version="1.1" viewBox="0 0 512 512">
  <defs>
    <style>
      .cls-1 {
        fill: #dfdcd3;
        stroke-width: 0px;
      }
    </style>
  </defs>
  <sodipodi:namedview id="namedview4" bordercolor="#666666" borderopacity="1" gridtolerance="10" guidetolerance="10" inkscape:current-layer="svg2" inkscape:cx="245.04229" inkscape:cy="284.41847" inkscape:document-units="px" inkscape:pageopacity="0" inkscape:pageshadow="2" inkscape:window-height="1025" inkscape:window-maximized="1" inkscape:window-width="1920" inkscape:window-x="0" inkscape:window-y="29" inkscape:zoom="2.6074563" objecttolerance="10" pagecolor="#ffffff" showgrid="false"/>
  <g>
    <path class="cls-1" d="M469.1,159.3c0-4.2-.3-8.5-1.1-12.6-5.1-27.2-27.6-47.2-55.3-47.2-104.5-.3-209.1-.1-313.6-.1-2.3,0-4.5.2-6.8.6-29.8,5.2-49.4,28.4-49.4,59.2-.1,50.3-.2,100.6.1,150.9,0,6.8,1.1,14,3.2,20.4,8.2,24.7,29.7,39.4,56.9,39.4,51,0,102,0,153,0,50.4,0,100.8,0,151.1,0,4.2,0,8.5,0,12.7-.7,29.7-5.2,49.1-28.5,49.2-59.3,0-50.2,0-100.3,0-150.5ZM430.3,309c0,14.7-7.6,22.3-22.4,22.3-101.3,0-202.7,0-304,0-14.7,0-22.3-7.6-22.3-22.4,0-49.7,0-99.4,0-149.1,0-14.4,7.6-22.1,22.1-22.1,50.7,0,101.3,0,152,0,50.5,0,101,0,151.6,0,15.7,0,22.9,7.3,22.9,23.1,0,49.4,0,98.8,0,148.2Z"/>
    <path class="cls-1" d="M293.6,253.8c-25.1,0-50.2-.1-75.3,0-11.9,0-20.5,8.6-20.4,19.7.2,10.9,8.8,19,20.6,19,12.4,0,24.8,0,37.2,0,12.5,0,25.1,0,37.6,0,12.1,0,20.7-8.1,20.8-19.2,0-11.1-8.6-19.5-20.6-19.5Z"/>
    <path class="cls-1" d="M139.8,253.8c-10.8,0-19.4,8.8-19.3,19.8.1,10.8,8.6,19.1,19.4,19.1,10.8,0,19.1-8.6,19.1-19.4,0-10.7-8.6-19.4-19.2-19.4Z"/>
    <path class="cls-1" d="M372.4,253.8c-10.6-.2-19.3,8.5-19.5,19.2-.1,10.8,8.2,19.5,18.8,19.7,10.8.2,19.5-8.1,19.7-18.8.2-11-8.2-19.9-19.1-20Z"/>
    <path class="cls-1" d="M217.1,215.2c10.6.1,19.7-8.9,19.6-19.5-.1-10.6-8.9-19.2-19.4-19.2-10.6,0-19.3,8.7-19.3,19.3,0,10.5,8.6,19.3,19.2,19.5Z"/>
    <path class="cls-1" d="M295.1,215.2c10.6-.2,19.1-9,19-19.6,0-10.6-8.8-19.2-19.4-19.1-10.6,0-19.3,8.8-19.3,19.3,0,10.7,9.1,19.7,19.7,19.4Z"/>
    <path class="cls-1" d="M139.7,215.2c10.6.1,19.3-8.6,19.4-19.3,0-10.7-8.5-19.4-19.1-19.5-10.7,0-19.3,8.5-19.4,19.2,0,10.7,8.5,19.4,19.1,19.5Z"/>
    <path class="cls-1" d="M372.4,176.5c-10.7,0-19.3,8.5-19.4,19.2,0,10.7,8.5,19.4,19.1,19.5,10.6,0,19.3-8.6,19.4-19.3,0-10.7-8.5-19.4-19.1-19.5Z"/>
  </g>
</svg>