<?xml version="1.0" encoding="UTF-8" standalone="no"?>
<svg
   id="svg2"
   version="1.1"
   viewBox="0 0 512 512"
   sodipodi:docname="auto-off.svg"
   inkscape:version="1.4 (e7c3feb100, 2024-10-09)"
   xmlns:inkscape="http://www.inkscape.org/namespaces/inkscape"
   xmlns:sodipodi="http://sodipodi.sourceforge.net/DTD/sodipodi-0.dtd"
   xmlns="http://www.w3.org/2000/svg"
   xmlns:svg="http://www.w3.org/2000/svg">
  <defs
     id="defs1">
    <style
       id="style1">
      .cls-1 {
        fill: #dfdcd3;
        stroke-width: 0px;
      }
    </style>
  </defs>
  <sodipodi:namedview
     id="namedview4"
     bordercolor="#666666"
     borderopacity="1"
     gridtolerance="10"
     guidetolerance="10"
     inkscape:current-layer="svg2"
     inkscape:cx="-160"
     inkscape:cy="304.27118"
     inkscape:document-units="px"
     inkscape:pageopacity="0"
     inkscape:pageshadow="2"
     inkscape:window-height="1368"
     inkscape:window-maximized="1"
     inkscape:window-width="2560"
     inkscape:window-x="0"
     inkscape:window-y="0"
     inkscape:zoom="0.92187502"
     objecttolerance="10"
     pagecolor="#ffffff"
     showgrid="false"
     inkscape:showpageshadow="2"
     inkscape:pagecheckerboard="0"
     inkscape:deskcolor="#d1d1d1" />
  <g
     id="g8"
     style="fill:#ffffff">
    <path
       class="cls-1"
       d="M139.8,253.8c-10.8,0-19.4,8.8-19.3,19.8.1,10.8,8.6,19.1,19.4,19.1,10.8,0,19.1-8.6,19.1-19.4,0-10.7-8.6-19.4-19.2-19.4Z"
       id="path1"
       style="fill:#ffffff" />
    <path
       class="cls-1"
       d="M372.4,253.8c-10.6-.2-19.3,8.5-19.5,19.2-.1,10.8,8.2,19.5,18.8,19.7,10.8.2,19.5-8.1,19.7-18.8.2-11-8.2-19.9-19.1-20Z"
       id="path2"
       style="fill:#ffffff" />
    <path
       class="cls-1"
       d="M295.1,215.2c10.6-.2,19.1-9,19-19.6,0-10.6-8.8-19.2-19.4-19.1-10.6,0-19.3,8.8-19.3,19.3,0,10.7,9.1,19.7,19.7,19.4Z"
       id="path3"
       style="fill:#ffffff" />
    <path
       class="cls-1"
       d="M372.4,176.5c-10.7,0-19.3,8.5-19.4,19.2,0,10.7,8.5,19.4,19.1,19.5,10.6,0,19.3-8.6,19.4-19.3,0-10.7-8.5-19.4-19.1-19.5Z"
       id="path4"
       style="fill:#ffffff" />
    <path
       class="cls-1"
       d="M493,399L156.2,69.3c-5.7-5.7-14.2-8.5-22.6-8.5h-67.9l336.8,332.6c5.7,5.7,14.2,8.5,22.6,8.5h67.9v-2.8Z"
       id="path5"
       style="fill:#ffffff" />
    <g
       id="g7"
       style="fill:#ffffff">
      <path
         class="cls-1"
         d="M257.8,331.3c-51.3,0-102.6,0-153.9,0-14.7,0-22.3-7.6-22.3-22.4,0-49.7,0-99.4,0-149.1,0-.8,0-1.6,0-2.4l-30.5-30.1c-5.3,9-8.3,19.8-8.3,31.7-.1,50.3-.2,100.6.1,150.9,0,6.8,1.1,14,3.2,20.4,8.2,24.7,29.7,39.4,56.9,39.4,51,0,102,0,153,0,13.6,0,27.2,0,40.8,0l-39-38.5Z"
         id="path6"
         style="fill:#ffffff" />
      <path
         class="cls-1"
         d="M469.1,159.3c0-4.2-.3-8.5-1.1-12.6-5.1-27.2-27.6-47.2-55.3-47.2-102.5-.3-205.1-.1-307.6-.1l39.3,38.4c37.1,0,74.3,0,111.4,0,50.5,0,101,0,151.6,0,15.7,0,22.9,7.3,22.9,23.1,0,49.4,0,98.8,0,148.2,0,14.7-7.6,22.3-22.4,22.3-22,0-43.9,0-65.9,0l39.3,38.5c8.6,0,17.2,0,25.8,0,4.2,0,8.5,0,12.7-.7,29.7-5.2,49.1-28.5,49.2-59.3,0-50.2,0-100.3,0-150.5Z"
         id="path7"
         style="fill:#ffffff" />
    </g>
  </g>
</svg>
