<?xml version="1.0" encoding="utf-8"?>
<!-- Generator: Adobe Illustrator 29.0.0, SVG Export Plug-In . SVG Version: 9.03 Build 54978)  -->
<svg version="1.0"
	 id="svg2" xmlns:svg="http://www.w3.org/2000/svg" xmlns:sodipodi="http://sodipodi.sourceforge.net/DTD/sodipodi-0.dtd" xmlns:cc="http://creativecommons.org/ns#" xmlns:rdf="http://www.w3.org/1999/02/22-rdf-syntax-ns#" xmlns:dc="http://purl.org/dc/elements/1.1/" xmlns:inkscape="http://www.inkscape.org/namespaces/inkscape"
	 xmlns="http://www.w3.org/2000/svg" xmlns:xlink="http://www.w3.org/1999/xlink" x="0px" y="0px" viewBox="0 0 512 512"
	 style="enable-background:new 0 0 512 512;" xml:space="preserve">
<style type="text/css">
	.st0{fill:#DFDCD3;}
	.st1{fill:none;}
</style>
<sodipodi:namedview  bordercolor="#666666" borderopacity="1" gridtolerance="10" guidetolerance="10" id="namedview4" inkscape:current-layer="svg2" inkscape:cx="245.04229" inkscape:cy="284.41847" inkscape:document-units="px" inkscape:pageopacity="0" inkscape:pageshadow="2" inkscape:window-height="1025" inkscape:window-maximized="1" inkscape:window-width="1920" inkscape:window-x="0" inkscape:window-y="29" inkscape:zoom="2.6074563" objecttolerance="10" pagecolor="#ffffff" showgrid="false">
	</sodipodi:namedview>
<path class="st0" d="M303.9,196.4c-25.1,0-50.2-0.1-75.3,0c-11.9,0-20.5,8.6-20.4,19.7c0.2,10.9,8.8,19,20.6,19h74.8
	c12.1,0,20.7-8.1,20.8-19.2c0-11.1-8.6-19.5-20.6-19.5H303.9z"/>
<path class="st0" d="M150.1,196.4c-10.8,0-19.4,8.8-19.3,19.8c0,10.8,8.6,19.1,19.4,19.1s19.1-8.6,19.1-19.4s-8.6-19.4-19.2-19.4
	l0,0V196.4z"/>
<path class="st0" d="M382.7,196.4c-10.6-0.2-19.3,8.5-19.5,19.2c-0.1,10.8,8.2,19.5,18.8,19.7c10.8,0.2,19.5-8.1,19.7-18.8
	c0.2-11-8.2-19.9-19.1-20L382.7,196.4L382.7,196.4z"/>
<path class="st0" d="M227.4,157.8c10.6,0.1,19.7-8.9,19.6-19.5c-0.1-10.6-8.9-19.2-19.4-19.2s-19.3,8.7-19.3,19.3
	s8.6,19.3,19.2,19.5h-0.1V157.8z"/>
<path class="st0" d="M305.4,157.8c10.6-0.2,19.1-9,19-19.6c0-10.6-8.8-19.2-19.4-19.1c-10.6,0-19.3,8.8-19.3,19.3
	S294.8,158.1,305.4,157.8L305.4,157.8L305.4,157.8z"/>
<path class="st0" d="M150,157.8c10.6,0.1,19.3-8.6,19.4-19.3c0-10.7-8.5-19.4-19.1-19.5c-10.7,0-19.3,8.5-19.4,19.2
	c0,10.7,8.5,19.4,19.1,19.5l0,0V157.8z"/>
<path class="st0" d="M382.7,119.1c-10.7,0-19.3,8.5-19.4,19.2c0,10.7,8.5,19.4,19.1,19.5c10.6,0,19.3-8.6,19.4-19.3
	C401.8,127.8,393.3,119.1,382.7,119.1L382.7,119.1L382.7,119.1z"/>
<path class="st0" d="M388.5,409.8c-52.6,0-95.5-42.8-95.5-95.5s42.8-95.5,95.5-95.5s95.5,42.8,95.5,95.5S441.2,409.8,388.5,409.8z
	 M388.5,242.9c-39.4,0-71.5,32.1-71.5,71.5s32.1,71.5,71.5,71.5s71.5-32.1,71.5-71.5S427.9,242.9,388.5,242.9z"/>
<path class="st0" d="M344.3,298.9h88.4c2.8,0,5.1,2.3,5.1,5.1v20.6c0,2.8-2.3,5.1-5.1,5.1h-88.4c-2.8,0-5.1-2.3-5.1-5.1V304
	C339.2,301.2,341.5,298.9,344.3,298.9z"/>
<path class="st0" d="M378.2,265h20.6c2.8,0,5.1,2.3,5.1,5.1v88.4c0,2.8-2.3,5.1-5.1,5.1h-20.6c-2.8,0-5.1-2.3-5.1-5.1v-88.4
	C373.1,267.3,375.4,265,378.2,265z"/>
<g>
	<line class="st1" x1="483.8" y1="407.4" x2="454.4" y2="378"/>
	<path class="st0" d="M483.8,425.4c-4.6,0-9.2-1.8-12.7-5.3l-29.4-29.4c-7-7-7-18.4,0-25.5s18.4-7,25.5,0l29.4,29.4
		c7,7,7,18.4,0,25.5S488.5,425.4,483.8,425.4L483.8,425.4z"/>
</g>
<path class="st0" d="M479.4,101.9c0-4.2-0.3-8.5-1.1-12.6c-5.1-27.2-27.6-47.2-55.3-47.2C318.5,41.8,213.9,42,109.4,42
	s-4.5,0.2-6.8,0.6C72.8,47.8,53.2,71,53.2,101.8c-0.1,50.3-0.2,100.6,0,150.9c0,6.8,1.1,14,3.2,20.4c8.2,24.7,29.7,39.4,56.9,39.4
	H305c0.3-14,4-27.1,10.4-38.6H114.2c-14.7,0-22.3-7.6-22.3-22.4V102.4c0-14.4,7.6-22.1,22.1-22.1h303.6c15.7,0,22.9,7.3,22.9,23.1
	V249c12.8,10.2,22.5,24,27.6,39.9c7.2-9.9,11.3-22.4,11.3-36.5V101.9L479.4,101.9L479.4,101.9z"/>
</svg>
