<?xml version="1.0" encoding="utf-8"?>
<!-- Generator: Adobe Illustrator 29.0.0, SVG Export Plug-In . SVG Version: 9.03 Build 54978)  -->
<svg version="1.0"
	 id="svg2" xmlns:svg="http://www.w3.org/2000/svg" xmlns:sodipodi="http://sodipodi.sourceforge.net/DTD/sodipodi-0.dtd" xmlns:cc="http://creativecommons.org/ns#" xmlns:rdf="http://www.w3.org/1999/02/22-rdf-syntax-ns#" xmlns:dc="http://purl.org/dc/elements/1.1/" xmlns:inkscape="http://www.inkscape.org/namespaces/inkscape"
	 xmlns="http://www.w3.org/2000/svg" xmlns:xlink="http://www.w3.org/1999/xlink" x="0px" y="0px" viewBox="0 0 512 512"
	 style="enable-background:new 0 0 512 512;" xml:space="preserve">
<style type="text/css">
	.st0{fill:#DFDCD3;}
	.st1{fill:none;}
</style>
<sodipodi:namedview  bordercolor="#666666" borderopacity="1" gridtolerance="10" guidetolerance="10" id="namedview4" inkscape:current-layer="svg2" inkscape:cx="245.04229" inkscape:cy="284.41847" inkscape:document-units="px" inkscape:pageopacity="0" inkscape:pageshadow="2" inkscape:window-height="1025" inkscape:window-maximized="1" inkscape:window-width="1920" inkscape:window-x="0" inkscape:window-y="29" inkscape:zoom="2.6074563" objecttolerance="10" pagecolor="#ffffff" showgrid="false">
	</sodipodi:namedview>
<path class="st0" d="M282.4,229c-25.1,0-50.2-0.1-75.3,0c-11.9,0-20.5,8.6-20.4,19.7c0.2,10.9,8.8,19,20.6,19h74.8
	c12.1,0,20.7-8.1,20.8-19.2c0-11.1-8.6-19.5-20.6-19.5L282.4,229L282.4,229z"/>
<path class="st0" d="M128.6,229c-10.8,0-19.4,8.8-19.3,19.8c0,10.8,8.6,19.1,19.4,19.1s19.1-8.6,19.1-19.4
	c0-10.8-8.6-19.4-19.2-19.4l0,0V229z"/>
<path class="st0" d="M361.2,229c-10.6-0.2-19.3,8.5-19.5,19.2c-0.1,10.8,8.2,19.5,18.8,19.7c10.8,0.2,19.5-8.1,19.7-18.8
	c0.2-11-8.2-19.9-19.1-20L361.2,229L361.2,229z"/>
<path class="st0" d="M205.9,190.4c10.6,0.1,19.7-8.9,19.6-19.5c-0.1-10.6-8.9-19.2-19.4-19.2s-19.3,8.7-19.3,19.3
	s8.6,19.3,19.2,19.5h-0.1V190.4z"/>
<path class="st0" d="M283.9,190.4c10.6-0.2,19.1-9,19-19.6c0-10.6-8.8-19.2-19.4-19.1c-10.6,0-19.3,8.8-19.3,19.3
	S273.3,190.7,283.9,190.4L283.9,190.4L283.9,190.4z"/>
<path class="st0" d="M128.5,190.4c10.6,0.1,19.3-8.6,19.4-19.3c0-10.7-8.5-19.4-19.1-19.5c-10.7,0-19.3,8.5-19.4,19.2
	c0,10.7,8.5,19.4,19.1,19.5l0,0L128.5,190.4z"/>
<path class="st0" d="M361.2,151.7c-10.7,0-19.3,8.5-19.4,19.2c0,10.7,8.5,19.4,19.1,19.5c10.6,0,19.3-8.6,19.4-19.3
	c0-10.7-8.5-19.4-19.1-19.5l0,0V151.7z"/>
<path class="st0" d="M367,442.4c-52.6,0-95.5-42.8-95.5-95.5s42.8-95.5,95.5-95.5s95.5,42.8,95.5,95.5S419.7,442.4,367,442.4z
	 M367,275.5c-39.4,0-71.5,32.1-71.5,71.5s32.1,71.5,71.5,71.5s71.5-32.1,71.5-71.5S406.4,275.5,367,275.5z"/>
<path class="st0" d="M322.9,326.3h88.4c2.8,0,5.1,2.7,5.1,6v24.1c0,3.3-2.3,6-5.1,6h-88.4c-2.8,0-5.1-2.7-5.1-6v-24.1
	C317.8,329,320.1,326.3,322.9,326.3z"/>
<g>
	<line class="st1" x1="462.4" y1="440" x2="433" y2="410.6"/>
	<path class="st0" d="M462.4,458c-4.6,0-9.2-1.8-12.7-5.3l-29.4-29.4c-7-7-7-18.4,0-25.5s18.4-7,25.5,0l29.4,29.4c7,7,7,18.4,0,25.5
		S467.1,458,462.4,458L462.4,458z"/>
</g>
<path class="st0" d="M457.9,134.5c0-4.2-0.3-8.5-1.1-12.6c-5.1-27.2-27.6-47.2-55.3-47.2C297,74.4,192.4,74.6,87.9,74.6
	s-4.5,0.2-6.8,0.6c-29.8,5.2-49.4,28.4-49.4,59.2c-0.1,50.3-0.2,100.6,0,150.9c0,6.8,1.1,14,3.2,20.4c8.2,24.7,29.7,39.4,56.9,39.4
	h191.7c0.3-14,4-27.1,10.4-38.6H92.7c-14.7,0-22.3-7.6-22.3-22.4V135c0-14.4,7.6-22.1,22.1-22.1h303.6c15.7,0,22.9,7.3,22.9,23.1
	v145.6c12.8,10.2,22.5,24,27.6,39.9c7.2-9.9,11.3-22.4,11.3-36.5V134.5L457.9,134.5L457.9,134.5z"/>
</svg>
