<?xml version="1.0" encoding="UTF-8"?>
<svg id="svg2" xmlns="http://www.w3.org/2000/svg" xmlns:svg="http://www.w3.org/2000/svg" xmlns:sodipodi="http://sodipodi.sourceforge.net/DTD/sodipodi-0.dtd" xmlns:rdf="http://www.w3.org/1999/02/22-rdf-syntax-ns#" xmlns:inkscape="http://www.inkscape.org/namespaces/inkscape" xmlns:dc="http://purl.org/dc/elements/1.1/" xmlns:cc="http://creativecommons.org/ns#" version="1.1" viewBox="0 0 512 512">
  <defs>
    <style>
      .cls-1 {
        fill: #dfdcd3;
        stroke-width: 0px;
      }
    </style>
  </defs>
  <sodipodi:namedview id="namedview4" bordercolor="#666666" borderopacity="1" gridtolerance="10" guidetolerance="10" inkscape:current-layer="svg2" inkscape:cx="245.04229" inkscape:cy="284.41847" inkscape:document-units="px" inkscape:pageopacity="0" inkscape:pageshadow="2" inkscape:window-height="1025" inkscape:window-maximized="1" inkscape:window-width="1920" inkscape:window-x="0" inkscape:window-y="29" inkscape:zoom="2.6074563" objecttolerance="10" pagecolor="#ffffff" showgrid="false"/>
  <g>
    <path class="cls-1" d="M290,259.3c-25,0-49.9-.1-74.9,0-11.9,0-20.4,8.5-20.3,19.6.2,10.9,8.8,18.9,20.5,18.9,12.3,0,24.7,0,37,0,12.5,0,25,0,37.5,0,12,0,20.6-8,20.7-19.1,0-11.1-8.5-19.4-20.5-19.4Z"/>
    <path class="cls-1" d="M137.1,259.3c-10.7,0-19.3,8.8-19.2,19.7.1,10.7,8.6,19,19.3,19,10.7,0,19-8.5,19-19.3,0-10.7-8.5-19.3-19.1-19.3Z"/>
    <path class="cls-1" d="M213.9,220.9c10.6.1,19.6-8.9,19.5-19.4-.1-10.5-8.8-19.1-19.3-19.1-10.5,0-19.2,8.6-19.2,19.2,0,10.5,8.6,19.2,19.1,19.4Z"/>
    <path class="cls-1" d="M291.5,220.9c10.5-.2,19-9,19-19.5,0-10.5-8.8-19.1-19.3-19-10.5,0-19.2,8.7-19.2,19.2,0,10.6,9.1,19.6,19.6,19.3Z"/>
    <path class="cls-1" d="M136.9,220.9c10.5.1,19.2-8.5,19.3-19.2,0-10.7-8.4-19.3-19-19.4-10.6,0-19.2,8.5-19.3,19.1,0,10.7,8.4,19.3,19,19.4Z"/>
    <path class="cls-1" d="M368.4,182.3c-10.6,0-19.2,8.5-19.3,19.1,0,10.7,8.4,19.3,19,19.4,10.6,0,19.2-8.5,19.3-19.2,0-10.7-8.4-19.3-19-19.4Z"/>
    <path class="cls-1" d="M355.8,293.4c8.5-8.9,19-15.9,30.8-20.4-2.4-7.9-9.5-13.6-18.1-13.7-10.5-.2-19.2,8.4-19.4,19.1,0,6.1,2.5,11.5,6.7,15.1Z"/>
    <rect class="cls-1" x="361.7" y="334.5" width="109.8" height="34.3" rx="5.7" ry="5.7"/>
    <path class="cls-1" d="M332.4,351.6c0-5.2.5-10.3,1.4-15.3-77.5,0-155,0-232.5,0-14.6,0-22.1-7.6-22.2-22.3,0-49.4,0-98.9,0-148.3,0-14.4,7.6-22,22-22,50.4,0,100.8,0,151.3,0,50.3,0,100.5,0,150.8,0,15.6,0,22.8,7.3,22.8,23,0,33.8,0,67.5,0,101.3,14.3,1.6,27.4,6.8,38.6,14.6,0-39.1,0-78.3,0-117.4,0-4.2-.3-8.4-1.1-12.6-5.1-27-27.5-46.9-55-47-104-.3-208.1-.1-312.1-.1-2.2,0-4.5.2-6.7.5-29.7,5.2-49.1,28.3-49.2,58.9-.1,50.1-.1,100.1.1,150.2,0,6.8,1.1,13.9,3.2,20.3,8.1,24.6,29.5,39.2,56.6,39.2,50.7,0,101.5,0,152.2,0,27.6,0,55.3,0,82.9,0-2.1-7.3-3.2-15.1-3.2-23.1Z"/>
  </g>
</svg>