<?xml version="1.0" encoding="UTF-8"?>
<svg id="katman_1" data-name="katman 1" xmlns="http://www.w3.org/2000/svg" version="1.1" viewBox="0 0 275 275">
  <defs>
    <style>
      .cls-1 {
        font-family: Ubuntu-Bold, Ubuntu;
        font-size: 122.5px;
        font-weight: 700;
      }

      .cls-1, .cls-2 {
        fill: #dfdcd3;
      }

      .cls-2 {
        stroke-width: 0px;
      }
    </style>
  </defs>
  <path class="cls-2" d="M78.4,91.9c-31,0-56.3,25.2-56.3,56.3s25.2,56.3,56.3,56.3,56.3-25.2,56.3-56.3-25.2-56.3-56.3-56.3Z"/>
  <g>
    <path class="cls-2" d="M82.8,99.9l24.2-24.2c-10.5,5.1-19.1,13.7-24.2,24.2Z"/>
    <path class="cls-2" d="M118.8,71.6l-40.1,40.1c-.5,2.1-.8,4.2-1,6.4l47.5-47.5c-2.2.2-4.3.5-6.4,1Z"/>
    <path class="cls-2" d="M133.1,70.5l-55.5,55.5c0,1.7.3,3.3.5,4.9l59.8-59.8c-1.6-.2-3.2-.4-4.9-.5Z"/>
    <path class="cls-2" d="M144.3,72.4l-64.8,64.8c.4,1.4.8,2.7,1.3,4.1l67.5-67.5c-1.3-.5-2.7-1-4.1-1.3Z"/>
    <path class="cls-2" d="M153.7,76.1l-70.5,70.5c.6,1.2,1.3,2.3,1.9,3.5l72-72c-1.1-.7-2.3-1.3-3.5-1.9Z"/>
    <path class="cls-2" d="M161.8,81.2l-73.5,73.5c.8,1,1.6,2,2.4,3l74-74c-1-.9-1.9-1.7-3-2.4Z"/>
    <path class="cls-2" d="M168.6,87.5l-74.1,74.1c.9.9,1.9,1.7,2.9,2.5l73.6-73.6c-.8-1-1.6-2-2.5-2.9Z"/>
    <path class="cls-2" d="M174.3,95l-72.3,72.3c1.1.7,2.3,1.4,3.4,2l70.8-70.8c-.6-1.2-1.3-2.3-2-3.4Z"/>
    <path class="cls-2" d="M178.8,103.7l-68,68c1.3.5,2.7,1,4,1.4l65.4-65.4c-.4-1.4-.9-2.7-1.4-4Z"/>
    <path class="cls-2" d="M181.6,114l-60.6,60.6c1.6.3,3.2.5,4.8.6l56.4-56.4c-.1-1.6-.3-3.2-.6-4.8Z"/>
    <path class="cls-2" d="M182.3,126.5l-48.7,48.7c2.1-.1,4.2-.4,6.2-.8l41.7-41.7c.4-2,.7-4.1.8-6.2Z"/>
    <path class="cls-2" d="M178,143.9l-27,27c12.1-5.3,21.7-15,27-27Z"/>
  </g>
  <path class="cls-2" d="M181.2,146.1c1.2-2.7,2.3-5.5,3-8.5.8-3.1,1.4-6.2,1.7-9.5.2-1.7.3-3.5.3-5.3s0-.2,0-.4c0-2.4-.2-4.9-.5-7.2-.2-1.6-.5-3.1-.8-4.6-.5-2.1-1-4.1-1.7-6-.5-1.3-1-2.6-1.5-3.9-.8-1.8-1.6-3.5-2.5-5.2-.6-1.1-1.3-2.3-2-3.4-1-1.5-2.1-3-3.3-4.5-.8-1-1.6-2-2.5-2.9-1.2-1.3-2.5-2.6-3.9-3.8-1-.9-1.9-1.7-2.9-2.5-1.5-1.1-3-2.2-4.5-3.2-1.1-.7-2.2-1.4-3.4-2-1.7-.9-3.5-1.7-5.2-2.5-1.3-.5-2.6-1-4-1.5-2-.7-4-1.2-6.1-1.6-1.5-.3-3.1-.6-4.7-.7-2.2-.3-4.4-.4-6.6-.4s-.5,0-.7,0c-1.9,0-3.9.1-5.8.4-3.3.4-6.6,1.1-9.7,2-3.1.9-6.1,2.1-9,3.6-10.8,5.4-19.6,14.3-25.1,25.1-1.4,2.9-2.6,5.9-3.6,9-.9,3.1-1.6,6.4-2,9.7-.2,1.9-.3,3.8-.4,5.8,0,.2,0,.5,0,.7,0,2.2.1,4.5.4,6.6.2,1.6.4,3.1.7,4.7.4,2.1,1,4.1,1.6,6.1.4,1.3.9,2.7,1.5,4,.7,1.8,1.6,3.5,2.5,5.2.6,1.2,1.3,2.3,2,3.4,1,1.6,2.1,3.1,3.2,4.5.8,1,1.6,2,2.5,2.9,1.2,1.4,2.5,2.7,3.8,3.9.9.9,1.9,1.7,2.9,2.5,1.4,1.2,2.9,2.2,4.5,3.3,1.1.7,2.2,1.4,3.4,2,1.7.9,3.4,1.8,5.2,2.5,1.3.5,2.6,1.1,3.9,1.5,2,.7,4,1.2,6,1.7,1.5.3,3,.6,4.6.8,2.4.3,4.8.5,7.2.5.1,0,.2,0,.3,0,1.8,0,3.6,0,5.3-.3,3.2-.3,6.4-.9,9.5-1.7,2.9-.8,5.7-1.8,8.5-3,12.4-5.6,22.4-15.6,28-28ZM139.7,174.4c-2,.4-4.1.7-6.2.8-1.2,0-2.4.1-3.6.1s-2.8,0-4.1-.2c-1.6-.1-3.2-.3-4.8-.6-2.1-.4-4.2-.9-6.3-1.5-1.4-.4-2.7-.9-4-1.4-1.8-.7-3.6-1.5-5.3-2.4-1.2-.6-2.3-1.3-3.4-2-1.6-1-3.1-2.1-4.5-3.2-1-.8-2-1.6-2.9-2.5-1.3-1.2-2.6-2.5-3.8-3.9-.9-1-1.7-1.9-2.4-3-1.1-1.5-2.2-3-3.1-4.6-.7-1.1-1.3-2.3-1.9-3.5-.9-1.7-1.7-3.5-2.4-5.4-.5-1.3-1-2.7-1.3-4.1-.6-2.1-1.1-4.2-1.4-6.3-.2-1.6-.4-3.2-.5-4.9,0-1,0-2.1,0-3.1,0-1.6,0-3.2.2-4.7.2-2.2.5-4.3,1-6.4.9-4.2,2.3-8.1,4.1-11.8,5.1-10.5,13.7-19.1,24.2-24.2,3.7-1.8,7.7-3.2,11.8-4.1,2.1-.5,4.2-.8,6.4-1,1.6-.1,3.1-.2,4.7-.2s2.1,0,3.1,0c1.7,0,3.3.3,4.9.5,2.2.3,4.3.8,6.3,1.4,1.4.4,2.7.8,4.1,1.3,1.8.7,3.6,1.5,5.4,2.4,1.2.6,2.3,1.3,3.5,1.9,1.6,1,3.1,2,4.6,3.1,1,.8,2,1.6,3,2.4,1.4,1.2,2.7,2.5,3.9,3.8.9.9,1.7,1.9,2.5,2.9,1.1,1.5,2.2,3,3.2,4.5.7,1.1,1.4,2.3,2,3.4.9,1.7,1.7,3.5,2.4,5.3.5,1.3,1,2.7,1.4,4,.6,2,1.1,4.1,1.5,6.3.3,1.6.5,3.2.6,4.8.1,1.4.2,2.7.2,4.1s0,2.4-.1,3.6c-.1,2.1-.4,4.2-.8,6.2-.7,3.9-1.9,7.7-3.5,11.2-5.3,12.1-15,21.7-27,27-3.6,1.6-7.3,2.7-11.2,3.5Z"/>
  <text class="cls-1" transform="translate(186.2 204.4)"><tspan x="0" y="0">-</tspan></text>
</svg>