<?xml version="1.0" encoding="UTF-8"?>
<svg id="katman_1" data-name="katman 1" xmlns="http://www.w3.org/2000/svg" xmlns:xlink="http://www.w3.org/1999/xlink" version="1.1" viewBox="0 0 275 275">
  <defs>
    <style>
      .cls-1 {
        font-family: Ubuntu-Bold, Ubuntu;
        font-size: 122.5px;
        font-weight: 700;
      }

      .cls-1, .cls-2 {
        fill: #dfdcd3;
      }

      .cls-2 {
        stroke-width: 0px;
      }
    </style>
  </defs>
  <image width="512" height="512" transform="translate(-762.9 -102.1)" xlink:href="auto-off.svg"/>
  <path class="cls-2" d="M78.4,91.9c-31,0-56.3,25.2-56.3,56.3s25.2,56.3,56.3,56.3,56.3-25.2,56.3-56.3-25.2-56.3-56.3-56.3Z"/>
  <g>
    <path class="cls-2" d="M82.8,99.9l24.2-24.2c-10.5,5.1-19.1,13.7-24.2,24.2Z"/>
    <path class="cls-2" d="M118.8,71.6l-40.1,40.1c-.5,2.1-.8,4.2-1,6.4l47.5-47.5c-2.2.2-4.3.5-6.4,1Z"/>
    <path class="cls-2" d="M133.1,70.5l-55.5,55.5c0,1.7.3,3.3.5,4.9l59.8-59.8c-1.6-.2-3.2-.4-4.9-.5Z"/>
    <path class="cls-2" d="M144.3,72.4l-64.8,64.8c.4,1.4.8,2.7,1.3,4.1l67.5-67.5c-1.3-.5-2.7-1-4.1-1.3Z"/>
    <path class="cls-2" d="M153.7,76.1l-70.5,70.5c.6,1.2,1.3,2.3,1.9,3.5l72-72c-1.1-.7-2.3-1.3-3.5-1.9Z"/>
    <path class="cls-2" d="M161.8,81.2l-73.5,73.5c.8,1,1.6,2,2.4,3l74-74c-1-.9-1.9-1.7-3-2.4Z"/>
    <path class="cls-2" d="M168.6,87.5l-74.1,74.1c.9.9,1.9,1.7,2.9,2.5l73.6-73.6c-.8-1-1.6-2-2.5-2.9Z"/>
    <path class="cls-2" d="M174.3,95l-72.3,72.3c1.1.7,2.3,1.4,3.4,2l70.8-70.8c-.6-1.2-1.3-2.3-2-3.4Z"/>
    <path class="cls-2" d="M178.8,103.7l-68,68c1.3.5,2.7,1,4,1.4l65.4-65.4c-.4-1.4-.9-2.7-1.4-4Z"/>
    <path class="cls-2" d="M181.6,114l-60.6,60.6c1.6.3,3.2.5,4.8.6l56.4-56.4c-.1-1.6-.3-3.2-.6-4.8Z"/>
    <path class="cls-2" d="M182.3,126.5l-48.7,48.7c2.1-.1,4.2-.4,6.2-.8l41.7-41.7c.4-2,.7-4.1.8-6.2Z"/>
    <path class="cls-2" d="M178,143.9l-27,27c12.1-5.3,21.7-15,27-27Z"/>
  </g>
  <path class="cls-2" d="M181.2,146.1c1.2-2.7,2.3-5.5,3-8.5.8-3.1,1.4-6.2,1.7-9.5.2-1.7.3-3.5.3-5.3s0-.2,0-.4c0-2.4-.2-4.9-.5-7.2-.2-1.6-.5-3.1-.8-4.6-.5-2.1-1-4.1-1.7-6-.5-1.3-1-2.6-1.5-3.9-.8-1.8-1.6-3.5-2.5-5.2-.6-1.1-1.3-2.3-2-3.4-1-1.5-2.1-3-3.3-4.5-.8-1-1.6-2-2.5-2.9-1.2-1.3-2.5-2.6-3.9-3.8-1-.9-1.9-1.7-2.9-2.5-1.5-1.1-3-2.2-4.5-3.2-1.1-.7-2.2-1.4-3.4-2-1.7-.9-3.5-1.7-5.2-2.5-1.3-.5-2.6-1-4-1.5-2-.7-4-1.2-6.1-1.6-1.5-.3-3.1-.6-4.7-.7-2.2-.3-4.4-.4-6.6-.4s-.5,0-.7,0c-1.9,0-3.9.1-5.8.4-3.3.4-6.6,1.1-9.7,2-3.1.9-6.1,2.1-9,3.6-10.8,5.4-19.6,14.3-25.1,25.1-1.4,2.9-2.6,5.9-3.6,9-.9,3.1-1.6,6.4-2,9.7-.2,1.9-.3,3.8-.4,5.8,0,.2,0,.5,0,.7,0,2.2.1,4.5.4,6.6.2,1.6.4,3.1.7,4.7.4,2.1,1,4.1,1.6,6.1.4,1.3.9,2.7,1.5,4,.7,1.8,1.6,3.5,2.5,5.2.6,1.2,1.3,2.3,2,3.4,1,1.6,2.1,3.1,3.2,4.5.8,1,1.6,2,2.5,2.9,1.2,1.4,2.5,2.7,3.8,3.9.9.9,1.9,1.7,2.9,2.5,1.4,1.2,2.9,2.2,4.5,3.3,1.1.7,2.2,1.4,3.4,2,1.7.9,3.4,1.8,5.2,2.5,1.3.5,2.6,1.1,3.9,1.5,2,.7,4,1.2,6,1.7,1.5.3,3,.6,4.6.8,2.4.3,4.8.5,7.2.5.1,0,.2,0,.3,0,1.8,0,3.6,0,5.3-.3,3.2-.3,6.4-.9,9.5-1.7,2.9-.8,5.7-1.8,8.5-3,12.4-5.6,22.4-15.6,28-28ZM139.7,174.4c-2,.4-4.1.7-6.2.8-1.2,0-2.4.1-3.6.1s-2.8,0-4.1-.2c-1.6-.1-3.2-.3-4.8-.6-2.1-.4-4.2-.9-6.3-1.5-1.4-.4-2.7-.9-4-1.4-1.8-.7-3.6-1.5-5.3-2.4-1.2-.6-2.3-1.3-3.4-2-1.6-1-3.1-2.1-4.5-3.2-1-.8-2-1.6-2.9-2.5-1.3-1.2-2.6-2.5-3.8-3.9-.9-1-1.7-1.9-2.4-3-1.1-1.5-2.2-3-3.1-4.6-.7-1.1-1.3-2.3-1.9-3.5-.9-1.7-1.7-3.5-2.4-5.4-.5-1.3-1-2.7-1.3-4.1-.6-2.1-1.1-4.2-1.4-6.3-.2-1.6-.4-3.2-.5-4.9,0-1,0-2.1,0-3.1,0-1.6,0-3.2.2-4.7.2-2.2.5-4.3,1-6.4.9-4.2,2.3-8.1,4.1-11.8,5.1-10.5,13.7-19.1,24.2-24.2,3.7-1.8,7.7-3.2,11.8-4.1,2.1-.5,4.2-.8,6.4-1,1.6-.1,3.1-.2,4.7-.2s2.1,0,3.1,0c1.7,0,3.3.3,4.9.5,2.2.3,4.3.8,6.3,1.4,1.4.4,2.7.8,4.1,1.3,1.8.7,3.6,1.5,5.4,2.4,1.2.6,2.3,1.3,3.5,1.9,1.6,1,3.1,2,4.6,3.1,1,.8,2,1.6,3,2.4,1.4,1.2,2.7,2.5,3.9,3.8.9.9,1.7,1.9,2.5,2.9,1.1,1.5,2.2,3,3.2,4.5.7,1.1,1.4,2.3,2,3.4.9,1.7,1.7,3.5,2.4,5.3.5,1.3,1,2.7,1.4,4,.6,2,1.1,4.1,1.5,6.3.3,1.6.5,3.2.6,4.8.1,1.4.2,2.7.2,4.1s0,2.4-.1,3.6c-.1,2.1-.4,4.2-.8,6.2-.7,3.9-1.9,7.7-3.5,11.2-5.3,12.1-15,21.7-27,27-3.6,1.6-7.3,2.7-11.2,3.5Z"/>
  <text class="cls-1" transform="translate(186.2 204.4)"><tspan x="0" y="0">+</tspan></text>
  <path class="cls-2" d="M239.1,488.9l-41-1.2c-4.8-.1-10.2-.3-11.9-.3-1.7,0-3,2.4-2.9,5.4.1,3,.4,9.5.6,14.3l4.2,16.9c.2,4.8.4,8.9.4,9.1,0,.2,1.9.2,4.2,0,2.3-.2,3.8-4.3,3.4-9.1l-5.1-18c-.4-4.8,3.1-9.3,7.9-10l4-.6c.3,2.8,2.6,5,5.5,5s5.6-2.5,5.6-5.6,0-.7,0-1l25.2-3.6c4.8-.7,4.8-1.4,0-1.5ZM148.4,487.4c-1.7,0-7.1.2-11.9.3l-41,1.2c-4.8.1-4.9.8,0,1.5l25.2,3.6c0,.3-.1.7-.1,1,0,3.1,2.5,5.6,5.6,5.6s5.2-2.2,5.5-5l4,.6c4.8.7,8.3,5.2,7.9,10l-5.1,18c-.4,4.8,1.1,8.9,3.4,9.1,2.3.2,4.2.1,4.2,0,0-.2.2-4.3.4-9.1l4.2-16.9c.2-4.8.5-11.3.6-14.3.1-3-1.2-5.5-2.8-5.4ZM305.4,419.3c-1.3-3.9-5.5-11-9.2-15.7-3.7-4.7-9.8-10.3-13.5-12.4-3.7-2.1-20.5,2.5-29.1,6.4l-6.2,2.8c-8.5,3.9-15.6,7.1-15.7,7.2-.2,0-1.2,0-1.9-.3-.8-.3-10.3-2.7-19.4-4.8l-16.4-3.8c-9.1-2.1-19.7-4.2-23.4-4.5-3.7-.3-19.7,2.3-28.9,4.4l-17.5,4c-9.1,2.1-17.3,4-18,4.2-.8.2-2.9,1-3.1.9-.2,0-7.5-3.5-16.1-7.4l-6.2-2.8c-8.5-3.9-19-7.4-23.4-7.7-4.3-.3-15.4,8.9-19.2,13.6-3.7,4.7-7.9,11.7-9.2,15.7-1.3,3.9,5.9,19.4,11.1,27.2l10.7,15.9c5.2,7.8,8.1,16.8,6.4,20-1.7,3.2-4.1,8.9-5.2,12.7-1.1,3.8.2,20.3,1.8,29.6l3.3,19.7c1.6,9.2,4.5,19.9,6.5,23.7,2,3.8,18.1,10.5,27.2,12.7l4.1,1c.7.2,1.4.4,2.1.6-13.4,7.3-26.1,16-37.2,25.9-1.6,1.5.4,3.7,2.2,2.5,14-9.3,27.6-18,41.7-25.6,2.7,1.4,5.4,3.1,8,5-11.6,9.2-21.5,21.1-28.5,31.9-.9,1.3.9,3.1,2.1,1.9,10.4-9.8,19.7-21.3,30.5-30.5,2.2,2,4.2,4.1,5.7,6.1l.9,1.2c-12.5,12-22.3,28.3-28.1,42.2-.6,1.5,1.6,2.6,2.5,1.3,9.7-12.9,17.6-27.8,28.5-39.5l3.6,5c5.5,7.6,12.6,16,15.9,18.6,3.2,2.6,17,4.7,22.4,4.7s13.1-.9,17.2-2c4-1.1,15.7-13.6,21.2-21.3l3.6-5c10.9,11.8,18.8,26.7,28.5,39.6,1,1.3,3,0,2.4-1.5-5.7-13.8-15.5-30.1-28-42.1l.7-1c1.5-2.1,3.6-4.2,5.9-6.3,10.7,9.2,20,20.6,30.3,30.3,1.4,1.3,3.2-.3,2.2-1.8-6.9-10.6-16.9-22.5-28.4-31.7,2.6-1.9,5.3-3.6,8-5,14.2,7.6,27.8,16.3,41.8,25.6,1.8,1.2,3.5-1.3,1.9-2.7-11.1-9.8-23.6-18.5-37-25.8.6-.2,1.2-.4,1.9-.6l4.2-1.1c9.1-2.3,19.5-6.1,23.1-8.4,3.6-2.3,9.1-18.9,10.6-28.1l3.4-19.7c1.6-9.3,2.8-20.1,2.7-24-.1-3.9-4.4-15.1-6.1-18.3-1.7-3.2,1.2-12.2,6.4-20l10.7-15.9c5.3-7.8,12.4-23.2,11.1-27.2ZM50.4,437.4c-4.7-6.9-8.7-13.1-8.9-13.7v-1.6c.4-.8,3.7-5.3,7.4-10,3.7-4.7,7.4-8.8,8.1-9.2.7-.4,9.7,3.2,18.3,7.1l1.3.6c8.5,3.9,15.4,7.3,15.2,7.5-.1.2-4.1,7.6-8.6,15.9l-7.5,14c-4.4,8.3-20.7-3.7-25.4-10.7ZM182.1,617.8c-1.4,1.1-9.4,1.9-14.8,1.9s-11.2-.4-12.9-1c-.7-.2-2.4-1.9-4.5-4.1l11.3-10.4c3.3-3,6.1-5.5,6.1-5.5,0,0,2.7,2.5,6.1,5.5l11.5,10.6c-1.3,1.5-2.3,2.6-2.8,3ZM267.3,522.4l-3.3,19.7c-1.6,9.2-3.4,17.8-4.1,18.9-.7,1.2-8.6,3.9-15.4,5.7-6.8,1.7-12.1,2-11.8.6.3-1.4-3.7-10.9-8.7-18.3-5.1-7.4-9.2-13.2-9.2-12.9,0,.3,1.2,6.3,2.5,12.9,1.3,6.6,2.2,13.6,2.1,15.6-.1,2-2.4,6.6-3.2,7.7,0,0,0,0,0,.1-8.6-3.5-17.4-6.4-26.2-8.6-2.4-.6-3.8,2.9-1.4,3.7,8.6,2.6,16.7,5.7,24.5,9.1-1.1,1.4-2.2,3.1-3.5,4.8-6.7-3.6-13.8-6.1-20.9-6.8-2.1-.2-2.3,2.8-.3,3.2,6.9,1.3,13,3.9,18.6,7.2-1.5,2.1-3.3,4.6-5.3,7.3-4.7-3.1-9.7-5.6-14.9-7-2-.5-3.1,2.3-1.1,3,5,1.9,9.5,4.4,13.5,7.4-1.9,2.7-3.9,5.4-5.6,7.7-1.1,1.5-2.1,2.9-3.2,4.3-.2-.2-.4-.3-.6-.4l-12.4-8.5c-3.7-2.6-6.8-4.7-6.8-4.8,0,0,0-4.1,0-8.6v-12.6c0-.2.2-.3.3-.5l20.2-22.9c2-4,0-7.3-4.5-7.3h-38.6c-4.5,0-6.6,3.3-4.5,7.3l20.2,22.9c.1.2.2.3.3.5v12.6c0,4.5,0,8.3,0,8.4,0,0-3,2.4-6.7,5l-12.4,8.5c-.2.1-.4.3-.5.4-1.2-1.5-2.3-3-3.3-4.4-1.7-2.3-3.6-4.9-5.5-7.6,4.1-3,8.6-5.5,13.6-7.4,1.7-.6.8-3.5-1-3-5.3,1.4-10.3,3.9-15.1,7.1-1.9-2.7-3.8-5.2-5.3-7.4,5.6-3.3,11.8-5.9,18.8-7.2,2-.4,1.5-3.3-.6-3.1-7.1.7-14.1,3.1-20.8,6.7-1.2-1.7-2.4-3.4-3.5-4.8,7.7-3.4,15.7-6.4,24.2-9,2.4-.7,1.8-4.5-.7-3.9-8.9,2.2-17.8,5.2-26.5,8.7,0,0-.1-.2-.2-.2-.7-1-1.9-3.3-2.6-5.2-.7-1.9.3-11.4,1.6-18,1.3-6.6,2.4-12.1,2.4-12.4,0-.3-4.1,5.1-9.2,12.5-5.1,7.4-9.2,14.5-9.1,15.8,0,1.3-4.8,3.4-11.5,1.7-6.8-1.7-13.2-3.7-14.3-4.5-1.1-.8-3.6-10.8-5.2-20l-3.3-19.7c-1.6-9.2-2.8-18.7-2.7-21,0-2.3,2.6-8.7,3.9-11,1.2-2.3,5.9-11,10.3-19.2l16.4-30.7c4.4-8.3,9.2-16.2,10.5-17.6,1.4-1.4,5.1-3.1,5.3-3.2.2,0,7.8-1.8,16.9-3.9l16.9-3.9c9.1-2.1,18.8-4,21.4-4.2,2.6-.2,15.6,2.2,24.8,4.3l15.7,3.7c9.1,2.1,16.7,3.9,16.9,4,.2,0,1.7.8,3.4,1.8,1.7.9,7.9,10.7,12.4,19l16.5,30.7c4.4,8.3,9,16.9,10.3,19.2,1.2,2.3,3.8,8.7,3.9,11,.1,2.3-1.1,11.7-2.7,21ZM293.1,423v.7c-.3.6-4.3,6.8-8.9,13.7-4.7,6.9-20.9,18.9-25.4,10.7l-7.5-14c-4.4-8.3-8.2-15.2-8.3-15.5-.1-.3,6.4-4.1,15-8l1.3-.6c8.5-3.9,16.3-7.1,17.3-7.1,1,0,5.4,4.5,9.1,9.2,3.7,4.7,7.1,9.2,7.4,10t0,.9ZM138.5,438.8c2.4.8,5.5-2.5,7-7.2,1.5-4.7.8-9.2-1.6-10-2.4-.8-5.5,2.5-7,7.2-1.5,4.7-.8,9.2,1.6,10ZM128.9,462.9c2.9,0,5.3-2,5.3-4.5s-2.3-4.5-5.3-4.5-5.3,2-5.3,4.5,2.4,4.5,5.3,4.5ZM255.2,541.1c-3.7-1.9-8.2-.3-10.1,3.4-1.9,3.7-.4,8.2,3.4,10.1,3.7,1.9,8.2.4,10.1-3.4,1.9-3.7.3-8.2-3.4-10.1ZM249.9,534.9c2.5.4,5.1-3.3,5.9-8.2.8-4.9-.6-9.2-3.1-9.6-2.5-.4-5.1,3.3-5.9,8.2-.8,4.9.6,9.2,3.1,9.6ZM114.5,445.7c5,0,9-5.1,9-11.3s-4-11.3-9-11.3-9,5-9,11.3c0,6.2,4,11.3,9,11.3ZM239.8,535c-2.6-1.3-5.6-.5-6.7,1.7-1.1,2.2,0,5.1,2.7,6.4,2.6,1.3,5.6.6,6.7-1.7,1.1-2.2,0-5.1-2.7-6.4ZM103.8,463.6c4.1,0,7.5-3.4,7.5-7.5s-3.4-7.5-7.5-7.5-7.5,3.4-7.5,7.5c0,4.1,3.4,7.5,7.5,7.5Z"/>
</svg>