<?xml version="1.0" encoding="UTF-8"?>
<svg id="katman_1" data-name="katman 1" xmlns="http://www.w3.org/2000/svg" version="1.1" viewBox="0 0 16 16">
  <defs>
    <style>
      .cls-1 {
        fill: #2e3436;
        stroke-width: 0px;
      }
    </style>
  </defs>
  <path class="cls-1" d="M1.1,6.9c1-1.1,2.1-2.1,3.4-2.8,1.2-.7,2.5-1,4-1s2,.4,2.8.9c1.2.6,2.3,1.5,3.2,2.5l.7.7c.4.5.4,1,0,1.4-1,1.2-2.1,2.2-3.4,2.9-.9.6-1.8,1-3.4,1.2s-1.7-.1-2.5-.4c-1.4-.5-2.6-1.3-3.7-2.3-.4-.4-.8-.8-1.2-1.2-.2-.2-.4-.5-.5-.8v-.4s.3-.4.6-.7ZM5.7,4.6c-1.7.7-3,1.9-4.2,3.3v.2c1.1,1.2,2.3,2.3,3.7,3.1.8.4,1.6.7,2.5.7s1.7-.1,2.5-.5c1.7-.7,3.1-2,4.3-3.4v-.2c-1.1-1.3-2.3-2.4-3.8-3.1-.8-.4-1.7-.7-2.4-.7-1.3,0-1.9.3-2.6.6Z"/>
  <path class="cls-1" d="M8,4.8c-1.8,0-3.2,1.4-3.2,3.2s1.4,3.2,3.2,3.2,3.2-1.4,3.2-3.2-1.4-3.2-3.2-3.2Z"/>
</svg>